# xmcd CD database file
#
# Track frame offsets:
#	150
#	4360
#	8217
#	12367
#	14185
#	16302
#	18340
#	20210
#	27232
#	29145
#	31202
#	35330
#	38100
#	40770
#	43262
#	45782
#	48250
#	50740
#	54760
#	82987
#	84697
#	86547
#	88207
#	89937
#	91617
#	93230
#	94962
#	96642
#	98197
#	99845
#	103080
#	105980
#	108880
#	111657
#	116592
#	118615
#	120817
#	123545
#	126522
#	131917
#	137150
#	142302
#	144112
#	146005
#	148362
#	150772
#	159865
#	163137
#	165627
#	168415
#	170765
#	174597
#	177177
#	179835
#	183197
#	186287
#	189465
#	192075
#	193952
#	195820
#	198392
#	202185
#	205777
#	208497
#	212482
#	217207
#	219452
#	222397
#	224547
#	227445
#	229800
#	232725
#	235572
#	238395
#	241342
#
# Disc length: 3255 seconds
#
# Revision: 0
# Processed by: cddbd v1.5.2PL0 Copyright (c) Steve Scherf et al.
# Submitted via: CDex 1.51
#
DISCID=420cb54b
DTITLE=Hal Crook - How To Improvise CD1
DYEAR=1991
DGENRE=Jazz
TTITLE0=I:2
TTITLE1=I:3
TTITLE2=I:5
TTITLE3=I:6
TTITLE4=I:9
TTITLE5=I:10
TTITLE6=I:11
TTITLE7=I:12
TTITLE8=I:13
TTITLE9=I:14
TTITLE10=I:15
TTITLE11=I:16
TTITLE12=I:17
TTITLE13=I:18
TTITLE14=I:19
TTITLE15=I:20
TTITLE16=I:21
TTITLE17=I:22
TTITLE18=I:23
TTITLE19=I:24
TTITLE20=I:25
TTITLE21=I:26
TTITLE22=I:27
TTITLE23=I:28
TTITLE24=I:29
TTITLE25=I:30
TTITLE26=I:31
TTITLE27=I:32
TTITLE28=I:33
TTITLE29=I:44
TTITLE30=I:45
TTITLE31=I:58
TTITLE32=I:59
TTITLE33=I:60
TTITLE34=I:61
TTITLE35=I:62
TTITLE36=I:63
TTITLE37=I:64
TTITLE38=I:65
TTITLE39=II:1
TTITLE40=II:2
TTITLE41=II:3
TTITLE42=II:4
TTITLE43=II:5
TTITLE44=II:6
TTITLE45=II:7
TTITLE46=II:11
TTITLE47=II:12
TTITLE48=II:13
TTITLE49=II:14
TTITLE50=II:19
TTITLE51=II:21
TTITLE52=II:22
TTITLE53=II:24
TTITLE54=II:25
TTITLE55=II:26
TTITLE56=II:27
TTITLE57=II:28
TTITLE58=II:29
TTITLE59=II:30
TTITLE60=II:31
TTITLE61=II:38
TTITLE62=II:39
TTITLE63=II:43
TTITLE64=II:44
TTITLE65=II:52
TTITLE66=II:53
TTITLE67=II:54
TTITLE68=II:55
TTITLE69=II:56
TTITLE70=II:57
TTITLE71=II:58
TTITLE72=II:59
TTITLE73=II:60
TTITLE74=II:61
EXTD=YEAR: 1991
EXTT0=
EXTT1=
EXTT2=
EXTT3=
EXTT4=
EXTT5=
EXTT6=
EXTT7=
EXTT8=
EXTT9=
EXTT10=
EXTT11=
EXTT12=
EXTT13=
EXTT14=
EXTT15=
EXTT16=
EXTT17=
EXTT18=
EXTT19=
EXTT20=
EXTT21=
EXTT22=
EXTT23=
EXTT24=
EXTT25=
EXTT26=
EXTT27=
EXTT28=
EXTT29=
EXTT30=
EXTT31=
EXTT32=
EXTT33=
EXTT34=
EXTT35=
EXTT36=
EXTT37=
EXTT38=
EXTT39=
EXTT40=
EXTT41=
EXTT42=
EXTT43=
EXTT44=
EXTT45=
EXTT46=
EXTT47=
EXTT48=
EXTT49=
EXTT50=
EXTT51=
EXTT52=
EXTT53=
EXTT54=
EXTT55=
EXTT56=
EXTT57=
EXTT58=
EXTT59=
EXTT60=
EXTT61=
EXTT62=
EXTT63=
EXTT64=
EXTT65=
EXTT66=
EXTT67=
EXTT68=
EXTT69=
EXTT70=
EXTT71=
EXTT72=
EXTT73=
EXTT74=
PLAYORDER=
